<svg aria-hidden="true" style="width:0;height:0;position:absolute;overflow:hidden" xmlns="http://www.w3.org/2000/svg"><defs><symbol id="icon-close" viewBox="0 0 32 32"><symbol id="icon-close_24px" viewBox="0 0 32 32"><path d="M31.439 3.166 28.273 0 15.719 12.552 3.167 0 .001 3.166l12.552 12.552L.001 28.272l3.166 3.166 12.552-12.554 12.554 12.554 3.166-3.166-12.554-12.554L31.439 3.166z"/></symbol><path fill="none" stroke="#fff" style="stroke:var(--color2,#000)" stroke-width="2.133" d="m8.533 8.533 14.933 14.933M8.533 23.467 23.466 8.534"/></symbol><symbol id="icon-favorite" viewBox="0 0 32 32"><path fill="#ff6b08" style="fill:var(--color1,#ff6b08)" d="m16 30.583-2.24-2.24C5.44 20.983 0 16.023 0 9.943c0-4.96 3.84-8.8 8.8-8.8 2.72 0 5.44 1.28 7.2 3.36 1.76-2.08 4.48-3.36 7.2-3.36 4.96 0 8.8 3.84 8.8 8.8 0 6.08-5.44 11.04-13.76 18.4L16 30.583z"/></symbol><symbol id="icon-arrow-left" viewBox="0 0 32 32"><path fill="none" stroke="#fff" style="stroke:var(--color2,#fff)" stroke-linejoin="round" stroke-linecap="round" stroke-width="2.667" d="M25.333 16H6.666M16 25.333 6.667 16 16 6.667"/></symbol><symbol id="icon-arrow-right" viewBox="0 0 32 32"><path fill="none" stroke="#fff" style="stroke:var(--color2,#fff)" stroke-linejoin="round" stroke-linecap="round" stroke-width="2.667" d="M6.667 16h18.667M16 25.333 25.333 16 16 6.667"/></symbol><symbol id="icon-search-2" viewBox="0 0 32 32"><path fill="none" stroke="#fff" style="stroke:var(--color2,#fff)" stroke-linejoin="round" stroke-linecap="round" stroke-width="2.667" d="M14.667 25.333c5.891 0 10.667-4.776 10.667-10.667S20.558 3.999 14.667 3.999 4 8.775 4 14.666s4.776 10.667 10.667 10.667zM28 28.001l-5.8-5.8"/></symbol><symbol id="icon-logo" viewBox="0 0 32 32"><path fill="none" stroke="#fff" style="stroke:var(--color2,#fff)" stroke-linejoin="round" stroke-linecap="round" stroke-width="2.667" d="M26.427 2.667H5.574a2.907 2.907 0 0 0-2.907 2.907v20.853a2.907 2.907 0 0 0 2.907 2.907h20.853a2.907 2.907 0 0 0 2.907-2.907V5.574a2.907 2.907 0 0 0-2.907-2.907zM9.333 2.667v26.667M22.667 2.667v26.667M2.667 16h26.667M2.667 9.333h6.667M2.667 22.667h6.667M22.667 22.667h6.667M22.667 9.333h6.667"/></symbol><symbol id="icon-git-icon" viewBox="0 0 32 32"><path d="M15.075.444a15.571 15.571 0 0 0-7.844 2.575C3.625 5.406 1.119 9.119.319 13.275c-.569 2.95-.325 6.013.7 8.738 1.188 3.137 3.462 5.969 6.275 7.8 1.325.863 3.337 1.75 3.969 1.75.275 0 .338-.025.525-.212l.213-.212v-3.275l-.419.056c-.65.075-2.056.044-2.6-.069-.694-.137-1.25-.425-1.706-.881-.306-.313-.425-.5-.65-1.006-.494-1.131-1-1.85-1.594-2.238-.606-.406-.906-.813-.725-.994.119-.119.775-.131 1.156-.019.763.225 1.438.769 2.025 1.644.719 1.069 1.469 1.575 2.381 1.631a5.153 5.153 0 0 0 1.775-.244l.394-.131.106-.444c.125-.55.425-1.169.706-1.481l.213-.231-.394-.044c-2.131-.238-4.025-1.087-5.144-2.306-1.1-1.206-1.712-3.137-1.719-5.406 0-1.275.175-2.106.631-3.019.188-.369.6-.981.819-1.213l.181-.194-.119-.338c-.35-1.006-.306-2.231.125-3.544.119-.362.138-.388.362-.425.631-.106 2.519.606 3.838 1.45l.363.231.575-.137c1.281-.306 1.744-.35 3.419-.35s2.137.044 3.419.35l.575.137.331-.213c1.462-.925 3.144-1.575 3.813-1.475l.281.044.163.544c.413 1.35.444 2.412.106 3.375l-.119.331.313.387c.925 1.137 1.313 2.344 1.313 4.056-.006 3.062-1.025 5.263-2.988 6.444-1.05.631-2.119.994-3.544 1.206l-.719.106.219.256c.262.306.55.875.694 1.381.087.319.106.769.125 3.125.012 1.806.044 2.813.094 2.925.256.656 1.038.538 3.081-.462 4.356-2.131 7.656-6.463 8.525-11.181.406-2.175.406-4.137.006-6.206-.806-4.175-3.306-7.888-6.919-10.275-2.313-1.525-5.056-2.438-7.65-2.55-.425-.019-.856-.044-.962-.05-.1-.013-.594 0-1.081.025z"/></symbol><symbol id="icon-link-icon" viewBox="0 0 32 32"><path d="M14.222.156c-2.318.228-5.22 1.308-7.268 2.702-1.152.782-2.816 2.361-3.698 3.527C2.332 7.622 1.08 10.14.639 11.704c-1.237 4.409-.398 9.486 2.219 13.34.782 1.152 2.361 2.816 3.527 3.698 1.237.924 3.755 2.176 5.319 2.617 2.631.74 5.959.74 8.59 0 1.564-.441 4.082-1.692 5.319-2.617 6.016-4.565 8.007-12.8 4.75-19.598-.811-1.692-1.564-2.816-2.816-4.124-1.294-1.365-2.546-2.29-4.224-3.157C20.479.398 17.421-.171 14.221.156zm-3.826 6.031c.583.37 1.124 1.351 1.124 2.005 0 .512-.427 1.465-.796 1.792-1.593 1.408-4.039.313-4.039-1.792 0-.768.228-1.266.825-1.835.782-.74 1.92-.811 2.887-.171zm13.014 6.001c.967.327 2.048 1.436 2.489 2.532.327.825.327.996.384 5.717l.057 4.878h-4.139l-.043-4.025c-.043-3.612-.071-4.068-.313-4.565-.356-.725-.967-1.081-1.835-1.081-.91 0-1.579.327-1.977.981-.313.498-.327.64-.37 4.594l-.043 4.096h-3.968V12.231h3.982v1.593l.37-.441c1.166-1.394 3.399-1.877 5.404-1.195zm-12.317 6.585v6.542H6.969V12.231h4.124v6.542z"/></symbol><symbol id="icon-sun" viewBox="0 0 32 32"><path d="M16 26a2 2 0 0 1 2 2v2a2 2 0 1 1-4 0v-2a2 2 0 0 1 2-2zm0-20a2 2 0 0 1-2-2V2a2 2 0 1 1 4 0v2a2 2 0 0 1-2 2zm14 8a2 2 0 1 1 0 4h-2a2 2 0 1 1 0-4h2zM6 16a2 2 0 0 1-2 2H2a2 2 0 1 1 0-4h2a2 2 0 0 1 2 2zm19.899 7.071 1.414 1.414a2 2 0 1 1-2.828 2.828l-1.414-1.414a2 2 0 1 1 2.828-2.828zM6.101 8.929 4.687 7.515a2 2 0 1 1 2.828-2.828l1.414 1.414a2 2 0 1 1-2.828 2.828zm19.798 0a2 2 0 1 1-2.828-2.828l1.414-1.414a2 2 0 1 1 2.828 2.828l-1.414 1.414zM6.101 23.071a2 2 0 1 1 2.828 2.828l-1.414 1.414a2 2 0 1 1-2.828-2.828l1.414-1.414zM16 8a8 8 0 1 0 0 16 8 8 0 0 0 0-16zm0 13a5 5 0 1 1 .001-10.001A5 5 0 0 1 16 21z"/></symbol><symbol id="icon-brightness" viewBox="0 0 24 24"><path d="M9.984 2.016q4.172 0 7.102 2.93t2.93 7.055-2.93 7.055-7.102 2.93q-2.719 0-4.969-1.313 2.297-1.313 3.633-3.633t1.336-5.039-1.336-5.039-3.633-3.633q2.25-1.313 4.969-1.313z"/></symbol></defs></svg>