<svg aria-hidden="true" style="position: absolute; width: 0; height: 0; overflow: hidden;" version="1.1" xmlns="http://www.w3.org/2000/svg" xmlns:xlink="http://www.w3.org/1999/xlink">
<defs>
<symbol id="icon-close" viewBox="0 0 32 32">

<path fill="none" stroke="#fff" style="stroke: var(--color2, #000)" stroke-linejoin="miter" stroke-linecap="butt" stroke-miterlimit="4" stroke-width="2.1333" d="M8.533 8.533l14.933 14.933"></path>
<path fill="none" stroke="#fff" style="stroke: var(--color2, #000)" stroke-linejoin="miter" stroke-linecap="butt" stroke-miterlimit="4" stroke-width="2.1333" d="M8.533 23.467l14.933-14.933"></path>

</symbol>
<symbol id="icon-favorite" viewBox="0 0 32 32">
<path fill="#ff6b08" style="fill: var(--color1, #ff6b08)" d="M16 30.583l-2.24-2.24c-8.32-7.36-13.76-12.32-13.76-18.4 0-4.96 3.84-8.8 8.8-8.8 2.72 0 5.44 1.28 7.2 3.36 1.76-2.080 4.48-3.36 7.2-3.36 4.96 0 8.8 3.84 8.8 8.8 0 6.080-5.44 11.040-13.76 18.4l-2.24 2.24z"></path>
</symbol>
<symbol id="icon-arrow-left" viewBox="0 0 32 32">
<path fill="none" stroke="#fff" style="stroke: var(--color2, #fff)" stroke-linejoin="round" stroke-linecap="round" stroke-miterlimit="4" stroke-width="2.6667" d="M25.333 16h-18.667"></path>
<path fill="none" stroke="#fff" style="stroke: var(--color2, #fff)" stroke-linejoin="round" stroke-linecap="round" stroke-miterlimit="4" stroke-width="2.6667" d="M16 25.333l-9.333-9.333 9.333-9.333"></path>
</symbol>
<symbol id="icon-arrow-right" viewBox="0 0 32 32">
<path fill="none" stroke="#fff" style="stroke: var(--color2, #fff)" stroke-linejoin="round" stroke-linecap="round" stroke-miterlimit="4" stroke-width="2.6667" d="M6.667 16h18.667"></path>
<path fill="none" stroke="#fff" style="stroke: var(--color2, #fff)" stroke-linejoin="round" stroke-linecap="round" stroke-miterlimit="4" stroke-width="2.6667" d="M16 25.333l9.333-9.333-9.333-9.333"></path>
</symbol>
<symbol id="icon-search-2" viewBox="0 0 32 32">
<path fill="none" stroke="#fff" style="stroke: var(--color2, #fff)" stroke-linejoin="round" stroke-linecap="round" stroke-miterlimit="4" stroke-width="2.6667" d="M14.667 25.333c5.891 0 10.667-4.776 10.667-10.667s-4.776-10.667-10.667-10.667c-5.891 0-10.667 4.776-10.667 10.667s4.776 10.667 10.667 10.667z"></path>
<path fill="none" stroke="#fff" style="stroke: var(--color2, #fff)" stroke-linejoin="round" stroke-linecap="round" stroke-miterlimit="4" stroke-width="2.6667" d="M28 28.001l-5.8-5.8"></path>
</symbol>
<symbol id="icon-logo" viewBox="0 0 32 32">
<path fill="none" stroke="#fff" style="stroke: var(--color2, #fff)" stroke-linejoin="round" stroke-linecap="round" stroke-miterlimit="4" stroke-width="2.6667" d="M26.427 2.667h-20.853c-1.605 0-2.907 1.301-2.907 2.907v20.853c0 1.605 1.301 2.907 2.907 2.907h20.853c1.605 0 2.907-1.301 2.907-2.907v-20.853c0-1.605-1.301-2.907-2.907-2.907z"></path>
<path fill="none" stroke="#fff" style="stroke: var(--color2, #fff)" stroke-linejoin="round" stroke-linecap="round" stroke-miterlimit="4" stroke-width="2.6667" d="M9.333 2.667v26.667"></path>
<path fill="none" stroke="#fff" style="stroke: var(--color2, #fff)" stroke-linejoin="round" stroke-linecap="round" stroke-miterlimit="4" stroke-width="2.6667" d="M22.667 2.667v26.667"></path>
<path fill="none" stroke="#fff" style="stroke: var(--color2, #fff)" stroke-linejoin="round" stroke-linecap="round" stroke-miterlimit="4" stroke-width="2.6667" d="M2.667 16h26.667"></path>
<path fill="none" stroke="#fff" style="stroke: var(--color2, #fff)" stroke-linejoin="round" stroke-linecap="round" stroke-miterlimit="4" stroke-width="2.6667" d="M2.667 9.333h6.667"></path>
<path fill="none" stroke="#fff" style="stroke: var(--color2, #fff)" stroke-linejoin="round" stroke-linecap="round" stroke-miterlimit="4" stroke-width="2.6667" d="M2.667 22.667h6.667"></path>
<path fill="none" stroke="#fff" style="stroke: var(--color2, #fff)" stroke-linejoin="round" stroke-linecap="round" stroke-miterlimit="4" stroke-width="2.6667" d="M22.667 22.667h6.667"></path>
<path fill="none" stroke="#fff" style="stroke: var(--color2, #fff)" stroke-linejoin="round" stroke-linecap="round" stroke-miterlimit="4" stroke-width="2.6667" d="M22.667 9.333h6.667"></path>
</symbol>
<symbol id="icon-git-icon" viewBox="0 0 32 32">
<path d="M15.075 0.444c-2.825 0.144-5.481 1.019-7.844 2.575-3.606 2.387-6.112 6.1-6.912 10.256-0.569 2.95-0.325 6.013 0.7 8.738 1.188 3.137 3.462 5.969 6.275 7.8 1.325 0.863 3.337 1.75 3.969 1.75 0.275 0 0.338-0.025 0.525-0.212l0.213-0.212v-3.275l-0.419 0.056c-0.65 0.075-2.056 0.044-2.6-0.069-0.694-0.137-1.25-0.425-1.706-0.881-0.306-0.313-0.425-0.5-0.65-1.006-0.494-1.131-1-1.85-1.594-2.238-0.606-0.406-0.906-0.813-0.725-0.994 0.119-0.119 0.775-0.131 1.156-0.019 0.763 0.225 1.438 0.769 2.025 1.644 0.719 1.069 1.469 1.575 2.381 1.631 0.55 0.031 1.219-0.063 1.775-0.244l0.394-0.131 0.106-0.444c0.125-0.55 0.425-1.169 0.706-1.481l0.213-0.231-0.394-0.044c-2.131-0.238-4.025-1.087-5.144-2.306-1.1-1.206-1.712-3.137-1.719-5.406 0-1.275 0.175-2.106 0.631-3.019 0.188-0.369 0.6-0.981 0.819-1.213l0.181-0.194-0.119-0.338c-0.35-1.006-0.306-2.231 0.125-3.544 0.119-0.362 0.138-0.388 0.362-0.425 0.631-0.106 2.519 0.606 3.838 1.45l0.363 0.231 0.575-0.137c1.281-0.306 1.744-0.35 3.419-0.35s2.137 0.044 3.419 0.35l0.575 0.137 0.331-0.213c1.462-0.925 3.144-1.575 3.813-1.475l0.281 0.044 0.163 0.544c0.413 1.35 0.444 2.412 0.106 3.375l-0.119 0.331 0.313 0.387c0.925 1.137 1.313 2.344 1.313 4.056-0.006 3.062-1.025 5.263-2.988 6.444-1.050 0.631-2.119 0.994-3.544 1.206l-0.719 0.106 0.219 0.256c0.262 0.306 0.55 0.875 0.694 1.381 0.087 0.319 0.106 0.769 0.125 3.125 0.012 1.806 0.044 2.813 0.094 2.925 0.256 0.656 1.038 0.538 3.081-0.462 4.356-2.131 7.656-6.463 8.525-11.181 0.406-2.175 0.406-4.137 0.006-6.206-0.806-4.175-3.306-7.888-6.919-10.275-2.313-1.525-5.056-2.438-7.65-2.55-0.425-0.019-0.856-0.044-0.962-0.050-0.1-0.013-0.594 0-1.081 0.025z"></path>
</symbol>
<symbol id="icon-link-icon" viewBox="0 0 32 32">
<path d="M14.222 0.156c-2.318 0.228-5.22 1.308-7.268 2.702-1.152 0.782-2.816 2.361-3.698 3.527-0.924 1.237-2.176 3.755-2.617 5.319-1.237 4.409-0.398 9.486 2.219 13.34 0.782 1.152 2.361 2.816 3.527 3.698 1.237 0.924 3.755 2.176 5.319 2.617 2.631 0.74 5.959 0.74 8.59 0 1.564-0.441 4.082-1.692 5.319-2.617 6.016-4.565 8.007-12.8 4.75-19.598-0.811-1.692-1.564-2.816-2.816-4.124-1.294-1.365-2.546-2.29-4.224-3.157-2.844-1.465-5.902-2.034-9.102-1.707zM10.396 6.187c0.583 0.37 1.124 1.351 1.124 2.005 0 0.512-0.427 1.465-0.796 1.792-1.593 1.408-4.039 0.313-4.039-1.792 0-0.768 0.228-1.266 0.825-1.835 0.782-0.74 1.92-0.811 2.887-0.171zM23.41 12.188c0.967 0.327 2.048 1.436 2.489 2.532 0.327 0.825 0.327 0.996 0.384 5.717l0.057 4.878h-4.139l-0.043-4.025c-0.043-3.612-0.071-4.068-0.313-4.565-0.356-0.725-0.967-1.081-1.835-1.081-0.91 0-1.579 0.327-1.977 0.981-0.313 0.498-0.327 0.64-0.37 4.594l-0.043 4.096h-3.968v-13.084h3.982v1.593l0.37-0.441c1.166-1.394 3.399-1.877 5.404-1.195zM11.093 18.773v6.542h-4.124v-13.084h4.124v6.542z"></path>
</symbol>
</defs>
</svg>
